<svg width="20" height="20" viewBox="0 0 20 20" fill="none" xmlns="http://www.w3.org/2000/svg">
<mask id="mask0_12562_245940" style="mask-type:alpha" maskUnits="userSpaceOnUse" x="0" y="0" width="20" height="20">
<rect width="20" height="20" fill="#D9D9D9"/>
</mask>
<g mask="url(#mask0_12562_245940)">
<path d="M2.50033 16.6667V7.25008C2.26421 7.0973 2.06644 6.90286 1.90699 6.66675C1.74699 6.43064 1.66699 6.15286 1.66699 5.83342V3.33341C1.66699 2.87508 1.83033 2.48258 2.15699 2.15591C2.4831 1.8298 2.87533 1.66675 3.33366 1.66675H16.667C17.1253 1.66675 17.5178 1.8298 17.8445 2.15591C18.1706 2.48258 18.3337 2.87508 18.3337 3.33341V5.83342C18.3337 6.15286 18.2537 6.43064 18.0937 6.66675C17.9342 6.90286 17.7364 7.0973 17.5003 7.25008V16.6667C17.5003 17.1251 17.3373 17.5176 17.0112 17.8442C16.6845 18.1704 16.292 18.3334 15.8337 18.3334H4.16699C3.70866 18.3334 3.31616 18.1704 2.98949 17.8442C2.66338 17.5176 2.50033 17.1251 2.50033 16.6667ZM4.16699 7.50008V16.6667H15.8337V7.50008H4.16699ZM16.667 5.83342V3.33341H3.33366V5.83342H16.667ZM7.50033 11.6667H12.5003V10.0001H7.50033V11.6667Z" fill="#A1A8C3"/>
</g>
</svg>
