<svg width="18" height="18" viewBox="0 0 18 18" fill="none" xmlns="http://www.w3.org/2000/svg">
<ellipse cx="8.97361" cy="9" rx="8.97361" ry="9" fill="url(#paint0_radial_601_18278)"/>
<circle cx="8.97359" cy="8.97359" r="6.58065" fill="url(#paint1_radial_601_18278)"/>
<path d="M11.4916 4.98625C11.4916 4.80676 11.346 4.66125 11.1666 4.66125H10.6108C10.4313 4.66125 10.2858 4.80676 10.2858 4.98625V7.65829C10.2858 8.11868 9.91106 8.49144 9.45266 8.49144H8.49452C8.03674 8.49144 7.66378 8.11689 7.66378 7.65829V4.98625C7.66378 4.80676 7.51827 4.66125 7.33878 4.66125H6.78063C6.60114 4.66125 6.45563 4.80676 6.45563 4.98625V7.65829C6.45563 8.78177 7.37104 9.69718 8.49452 9.69718H9.45266C10.5761 9.69718 11.4916 8.78177 11.4916 7.65829V4.98625Z" fill="#FEDB71" stroke="#FEDB71" stroke-width="0.25"/>
<path d="M11.4838 10.9786C11.4979 10.7898 11.3435 10.6443 11.1666 10.6443H10.6089C10.4258 10.6443 10.2934 10.7911 10.2716 10.9519C10.1917 11.5404 9.73808 11.9746 9.21301 11.9746H8.73417C8.2091 11.9746 7.75548 11.5404 7.67557 10.9519C7.65373 10.7911 7.5214 10.6443 7.33829 10.6443H6.78063C6.60372 10.6443 6.4493 10.7898 6.46343 10.9786C6.55926 12.2583 7.53177 13.2872 8.73417 13.2872H9.21301C10.4178 13.2872 11.3882 12.2583 11.4838 10.9786Z" fill="#FEDB71" stroke="#FEDB71" stroke-width="0.25"/>
<defs>
<radialGradient id="paint0_radial_601_18278" cx="0" cy="0" r="1" gradientUnits="userSpaceOnUse" gradientTransform="translate(8.97361 9) rotate(54.4555) scale(15.2361 15.1914)">
<stop offset="0.389067" stop-color="#FED458"/>
<stop offset="0.848958" stop-color="#FEC22E"/>
</radialGradient>
<radialGradient id="paint1_radial_601_18278" cx="0" cy="0" r="1" gradientUnits="userSpaceOnUse" gradientTransform="translate(8.82216 9.15397) rotate(92.4128) scale(6.59107)">
<stop offset="0.870467" stop-color="#FFB127"/>
<stop offset="1" stop-color="#FD9F12"/>
</radialGradient>
</defs>
</svg>
